<?xml version="1.0" standalone="no"?>
<!DOCTYPE svg PUBLIC "-//W3C//DTD SVG 20010904//EN"
 "http://www.w3.org/TR/2001/REC-SVG-20010904/DTD/svg10.dtd">
<svg version="1.0" xmlns="http://www.w3.org/2000/svg"
 width="260.000000pt" height="260.000000pt" viewBox="0 0 260.000000 260.000000"
 preserveAspectRatio="xMidYMid meet">
<metadata>
Created by potrace 1.11, written by Peter Selinger 2001-2013
</metadata>
<g transform="translate(0.000000,260.000000) scale(0.100000,-0.100000)"
fill="#000000" stroke="none">
<path d="M702 2593 c3 -15 -14 -77 -32 -113 -42 -84 -50 -109 -54 -176 -2 -39
-9 -80 -14 -91 -17 -31 -36 -417 -37 -763 -1 -179 -2 -361 -4 -405 -3 -94 10
-177 37 -237 11 -23 23 -54 27 -68 4 -14 20 -46 35 -71 28 -46 51 -127 45
-157 -2 -10 -4 -20 -4 -24 -1 -5 -5 -8 -10 -8 -5 0 -38 -13 -73 -29 -35 -16
-84 -32 -110 -36 -53 -8 -67 -27 -35 -48 53 -35 143 -149 132 -168 -3 -4 -6
-25 -7 -48 -1 -22 -5 -38 -8 -36 -20 12 -28 -32 -21 -103 1 -10 57 -12 277
-10 275 3 275 3 293 26 14 20 29 24 88 29 46 3 73 1 77 -6 9 -14 143 -15 151
-1 4 6 15 8 26 5 10 -4 19 -2 19 2 0 5 19 17 43 26 89 37 133 64 179 109 27
25 48 50 48 56 0 23 77 145 101 159 15 9 32 27 38 40 14 30 14 100 1 108 -19
12 -10 45 15 57 22 10 25 17 25 68 0 31 3 60 7 64 5 4 9 20 9 34 1 15 9 54 18
87 24 83 37 217 29 300 -6 65 -7 67 -15 35 -5 -19 -10 -42 -12 -50 -3 -8 -5
-25 -5 -38 -1 -13 -12 -34 -26 -48 -14 -14 -25 -29 -25 -34 0 -14 -74 -12 -87
1 -7 7 -19 8 -30 4 -18 -8 -27 -11 -40 -14 -5 -1 -1 -5 7 -11 12 -8 12 -10 -3
-16 -10 -3 -24 -22 -32 -41 -17 -41 -31 -37 -33 9 -2 48 -41 168 -56 174 -8 3
-12 13 -9 24 5 20 -12 36 -22 20 -7 -12 -59 39 -78 78 -8 15 -17 42 -20 60 -6
29 -4 32 18 32 18 0 29 -8 37 -27 13 -30 54 -74 61 -66 3 2 1 19 -4 36 -5 18
-9 60 -9 95 0 62 -1 64 -30 75 -18 7 -30 19 -30 29 0 10 -5 18 -11 18 -7 0 -9
-12 -5 -34 4 -19 1 -46 -6 -62 l-12 -29 -3 26 c-3 18 -12 29 -26 33 -30 8 -99
-5 -115 -21 -19 -19 -46 -16 -67 7 -10 11 -24 20 -30 20 -23 0 -47 50 -40 78
4 15 9 38 10 52 2 14 6 36 10 50 3 14 8 93 11 176 l4 151 -28 12 c-16 7 -36
27 -45 46 -17 36 -50 52 -88 42 -12 -3 -29 -2 -38 3 -45 24 -101 33 -98 17 1
-5 -4 -12 -12 -15 -9 -3 -11 0 -6 8 6 9 3 9 -13 1 -15 -8 -29 -8 -48 -1 -19 8
-30 8 -38 0 -5 -5 -18 -10 -27 -10 -9 0 -19 -7 -23 -15 -3 -8 -14 -15 -25 -15
-11 0 -22 -8 -25 -18 -4 -10 -14 -27 -24 -38 -27 -29 -72 -125 -72 -153 0 -19
-3 -22 -12 -13 -25 25 -16 153 13 172 4 3 11 28 15 55 3 28 11 53 18 58 8 5 8
9 0 15 -15 9 -2 101 15 111 11 7 17 27 25 76 7 39 26 77 38 73 7 -3 20 4 28
15 16 19 80 33 80 17 0 -5 12 -5 28 -1 15 4 33 6 40 4 17 -6 15 16 -3 23 -12
5 -12 8 0 20 7 8 17 14 20 14 4 0 20 9 36 21 16 11 35 19 42 16 18 -6 100 33
115 55 7 10 20 18 28 18 8 0 14 7 14 15 0 13 -36 15 -260 15 -143 0 -259 -3
-258 -7z m281 -722 c11 -11 7 -13 -48 -27 -33 -8 -94 -8 -102 0 -12 12 11 26
42 26 19 0 37 5 40 10 7 12 54 5 68 -9z m-346 -143 c-3 -7 -5 -2 -5 12 0 14 2
19 5 13 2 -7 2 -19 0 -25z m253 -239 c0 -5 -7 -9 -15 -9 -8 0 -15 7 -15 15 0
9 6 12 15 9 8 -4 15 -10 15 -15z m-263 -36 c-3 -10 -5 -2 -5 17 0 19 2 27 5
18 2 -10 2 -26 0 -35z m878 -423 c11 -5 16 -9 11 -9 -6 -1 0 -10 12 -21 12
-12 22 -25 22 -30 0 -6 6 -10 14 -10 21 0 31 -72 15 -102 -7 -13 -12 -26 -11
-30 1 -5 -4 -8 -11 -8 -7 0 -18 -20 -25 -44 -8 -32 -17 -45 -34 -50 -35 -9
-78 -7 -78 4 0 6 -5 10 -11 10 -16 0 -48 42 -49 64 0 10 18 36 40 58 46 46 57
77 43 122 -5 17 -8 37 -5 44 4 14 37 15 67 2z m-336 -147 c7 -8 21 -11 31 -8
14 5 18 1 17 -15 -1 -21 -21 -27 -33 -9 -4 8 -9 8 -17 0 -6 -6 -20 -11 -30
-11 -13 0 -17 -5 -14 -14 4 -10 1 -13 -9 -9 -17 6 -19 64 -3 80 13 13 37 6 58
-14z m-24 -93 c-3 -5 -14 -10 -23 -10 -15 0 -15 2 -2 10 20 13 33 13 25 0z"/>
<path d="M1485 2593 c133 -30 205 -61 205 -90 0 -6 9 -14 19 -18 11 -3 26 -21
36 -40 9 -19 20 -35 24 -35 5 0 16 -16 25 -35 9 -19 20 -35 24 -35 5 0 16 -23
26 -51 10 -28 25 -53 32 -56 8 -3 14 -10 14 -16 0 -6 6 -18 13 -26 8 -9 20
-32 27 -51 7 -19 21 -54 31 -76 10 -23 21 -57 24 -75 10 -69 24 -140 30 -159
8 -26 9 -262 1 -330 -10 -86 10 -30 30 86 9 56 15 110 12 121 -3 11 1 60 8
109 8 49 14 121 14 159 0 39 5 88 10 109 5 24 5 56 0 80 -5 23 -14 64 -20 91
-6 28 -13 73 -15 100 -7 72 -7 75 -17 75 -4 0 -8 9 -8 19 0 11 -4 23 -10 26
-5 3 -10 21 -10 40 0 19 -5 46 -12 60 l-11 25 -261 -1 c-144 -1 -252 -3 -241
-6z"/>
<path d="M2030 2588 c0 -7 9 -43 19 -80 10 -37 16 -79 13 -93 -2 -15 0 -25 7
-25 15 0 14 26 -5 112 -9 40 -16 79 -17 86 0 6 -4 12 -9 12 -4 0 -8 -6 -8 -12z"/>
<path d="M850 2289 c0 -5 5 -7 10 -4 6 3 10 8 10 11 0 2 -4 4 -10 4 -5 0 -10
-5 -10 -11z"/>
<path d="M850 2250 c0 -11 6 -20 14 -20 9 0 12 7 9 20 -3 11 -9 20 -14 20 -5
0 -9 -9 -9 -20z"/>
<path d="M910 2216 c0 -7 61 -13 65 -6 2 3 -12 7 -31 8 -19 2 -34 1 -34 -2z"/>
<path d="M1001 2154 c0 -11 3 -14 6 -6 3 7 2 16 -1 19 -3 4 -6 -2 -5 -13z"/>
<path d="M1528 2019 c-6 -4 -8 -19 -6 -34 5 -26 -18 -85 -34 -85 -8 0 -26 -63
-32 -111 -4 -35 4 -54 47 -110 15 -20 27 -44 27 -53 0 -9 11 -21 24 -26 26 -9
66 -3 66 11 0 5 6 9 13 9 7 0 18 5 24 11 6 6 34 12 63 14 28 2 58 9 65 15 7 6
20 8 29 4 11 -4 16 -1 16 10 0 9 -4 16 -9 16 -5 0 -11 9 -14 20 -3 11 -13 23
-24 26 -54 18 -81 36 -87 57 -3 13 -17 29 -31 37 -36 19 -36 77 0 86 22 5 76
1 130 -10 11 -2 27 -5 36 -5 8 -1 25 -10 36 -20 27 -25 34 -18 22 22 -29 103
-55 117 -227 120 -68 1 -129 -1 -134 -4z"/>
<path d="M355 98 c-24 -14 -79 -68 -70 -68 4 0 2 -7 -5 -15 -11 -13 1 -15 100
-15 l111 0 -20 26 c-12 15 -21 33 -21 40 0 8 -11 16 -25 20 -14 3 -25 10 -25
15 0 12 -21 11 -45 -3z"/>
</g>
</svg>
